<svg width="112" height="48" fill="none" xmlns="http://www.w3.org/2000/svg"><path fill-rule="evenodd" clip-rule="evenodd" d="M25.459.582c-2.744 3.799-4.288 7.654-4.8 11.987-.2 1.68-.091 5.34.202 6.838.661 3.382 2.102 6.828 4.001 9.572.993 1.434.99 1.432 1.629.591 3.12-4.1 5.01-10.143 4.764-15.227-.242-4.996-1.872-9.522-4.96-13.77L25.879 0l-.42.582zm1.884 4.242c1.855 3.573 2.7 6.991 2.7 10.922 0 1.416-.322 4.715-.473 4.847-.028.024-.094-.686-.147-1.578-.18-3.026-.722-5.504-1.754-8.032-.585-1.431-1.669-3.535-1.822-3.535-.155 0-1.181 2.004-1.718 3.356-1.12 2.815-1.606 4.955-1.72 7.566-.091 2.052-.196 2.587-.348 1.77-.056-.302-.178-1.49-.272-2.638-.294-3.59.199-6.823 1.564-10.271.657-1.662 1.814-3.994 2.306-4.65l.218-.29.416.656c.23.361.702 1.206 1.05 1.877zm8.014 18.123v8.298h3.497V16.723h3.357v-2.075h-6.854v8.299zm8.951-8.127c0 .095-.316 2.91-.703 6.255-.897 7.75-1.114 9.692-1.114 9.957 0 .191.175.213 1.728.213h1.73l.093-1.312c.051-.721.132-1.71.178-2.197l.085-.884h1.748l.08.518c.045.286.124 1.274.175 2.197l.094 1.678h3.581l-.066-.397c-.036-.218-.44-3.691-.898-7.718-.458-4.028-.87-7.583-.918-7.902l-.085-.58h-2.854c-2.363 0-2.854.03-2.854.172zm11.33-.045c-.76.138-1.235.43-1.61.984-.24.357-.286.68-.326 2.337l-.048 1.922h3.521l.003-1.312c.002-1.377.159-1.887.602-1.962.591-.099.654.136.654 2.434 0 2.714.029 2.67-1.748 2.67h-1.189v1.831h1.058c1.014 0 1.55.126 1.772.415.057.073.104 1.18.105 2.459.002 2.463-.037 2.617-.659 2.617-.48 0-.598-.418-.598-2.143v-1.518h-3.519l.047 2.166c.051 2.404.141 2.698.988 3.225.431.268.597.286 2.998.322 2.344.035 2.585.018 3.11-.215a1.95 1.95 0 0 0 .885-.77c.298-.487.319-.68.356-3.263.036-2.439.012-2.794-.21-3.17-.315-.538-1.064-.98-1.66-.98-.66 0-.716-.207-.081-.301.809-.12 1.406-.495 1.707-1.074.23-.443.269-.808.27-2.59.005-3.721-.352-4.108-3.842-4.166-1.077-.018-2.24.019-2.587.082zm8.95 8.172v8.298h3.636V16.723h1.259V31.245h3.496V14.648h-8.391v8.299zm11.014-8.23c-.058.052-.105 3.792-.105 8.311v8.217h3.636v-5.614h1.44c1.865 0 2.513-.247 3.036-1.159.349-.609.35-.618.35-4.15 0-1.946-.05-3.742-.111-3.992-.13-.536-.659-1.121-1.27-1.407-.364-.17-.982-.213-3.655-.252-1.769-.025-3.264-.004-3.321.047zm12.902.057c-.826.152-1.26.441-1.644 1.097l-.314.537v13.199l.314.537c.575.982.752 1.035 3.606 1.078 2.232.034 2.57.013 3.117-.199.485-.187.683-.36.949-.83l.335-.596V16.297l-.316-.518c-.522-.852-1.115-1.037-3.46-1.082-1.077-.02-2.241.015-2.587.078zm8.95 8.17v8.301h3.637l.004-5.217c.004-4.816.086-5.848.336-4.24.052.335.437 2.482.856 4.77.419 2.29.762 4.28.762 4.425 0 .252.059.262 1.466.262 1.406 0 1.469-.011 1.537-.275.097-.375.5-2.563 1.207-6.559.327-1.846.646-3.408.709-3.472.064-.064.116 2.23.116 5.095v5.211h3.636V14.648h-2.299c-1.265 0-2.329.041-2.364.092-.035.05-.357 1.519-.715 3.264-.358 1.745-.801 3.887-.984 4.76a147.91 147.91 0 0 0-.509 2.532c-.097.52-.217.945-.266.945-.05 0-.17-.398-.266-.884-.097-.487-.323-1.599-.503-2.471-.179-.873-.553-2.713-.832-4.089a315.58 315.58 0 0 0-.679-3.295l-.173-.793-2.338-.033-2.337-.034v8.302zm-80.348-8.045C8.463 15.673 1.605 21.3.177 28.792c-.288 1.511-.214 4.658.143 6.053 1.729 6.766 7.657 11.734 15.457 12.953 1.738.272 4.667.269 6.434-.007 3.576-.558 7.026-2.04 9.564-4.109l1.065-.868V31.49H18.994V36.522l.492-.328c2.62-1.744 6.472-1.028 8.01 1.49 1.265 2.07.789 4.162-1.345 5.9-1.875 1.528-4.525 2.428-7.144 2.426-8.41-.005-13.53-7.911-9.223-14.241.677-.996 2.107-2.277 3.31-2.966 1.173-.672 2.93-1.272 4.082-1.393.423-.044 1.007-.11 1.297-.148l.528-.067-.039-6.182-.038-6.182-.35-.016c-.192-.01-.853.029-1.468.084zm30.346 3.258c.052.788.183 2.504.292 3.813.11 1.31.2 2.558.2 2.777v.396h-1.56l.08-.762c.043-.42.177-2.191.297-3.936s.248-3.297.284-3.448c.155-.645.32-.176.407 1.16zm32.722-1.163c.183.228.218.762.218 3.356 0 2.953-.012 3.095-.288 3.336-.161.14-.424.235-.595.214-.306-.038-.306-.04-.343-3.608l-.037-3.57h.414c.269 0 .49.095.631.272zm10.96-.125c.24.211.24 11.944 0 12.155-.258.224-.785.174-.947-.09-.094-.153-.145-2.27-.145-6.032 0-5.106.026-5.819.22-5.988.262-.228.639-.248.871-.045zm-64.652 2.478c1.347 3.122 1.18 7.027-.415 9.683l-.186.308-.244-.412c-1.18-1.992-1.626-5.133-1.064-7.506.249-1.055.875-2.632 1.175-2.963.2-.222.313-.085.734.89zm8.736 22.942v5.675H112V36.615H35.218v5.674zm5.004-2.227.04 1.312H42.211v-2.685h1.538V45.767h-1.538v-3.173h-1.959v3.173h-1.678v-7.09l.804.037.805.036.04 1.312zm18.772-.763v.61h-2.798V41.375h2.518v1.22h-2.518v2.075h2.798v1.098h-4.336V38.69h4.336v.61zm15.218-.152c.041.37.079.397.567.397.337 0 .75.125 1.16.352.864.478 1.261 1.2 1.268 2.303.009 1.644-.967 2.714-2.475 2.714-.471 0-.494.02-.494.427v.427H72.56v-.427c0-.42-.01-.427-.581-.427-.797 0-1.642-.454-2.077-1.117-.464-.708-.5-2.223-.068-2.963a2.587 2.587 0 0 1 2.022-1.261c.696-.059.705-.065.705-.477v-.418l.804.037c.795.036.805.04.848.433zm18.418.152v.55l-.944.036-.945.036v5.846h-1.538V39.91h-1.958v-1.225l2.692.033 2.693.033v.55zm12.097.716v1.326l.903.063c1.129.079 1.71.368 2.129 1.059.593.978.315 2.421-.585 3.04-.351.24-.551.264-2.186.264h-1.799V38.69h1.538v1.326zm-33.142.928c-.218.203-.346.499-.39.908-.132 1.194.266 1.964 1.015 1.964h.35v-1.587c0-1.579-.002-1.586-.326-1.586-.178 0-.47.135-.649.3zm2.653 1.285v1.587h.34c.754 0 1.217-1.111.917-2.202-.17-.619-.536-.971-1.008-.971-.226 0-.249.147-.249 1.586zm30.519 1.434.04 1.068.616-.012c.761-.015.993-.253.993-1.022 0-.806-.285-1.102-1.063-1.102h-.627l.041 1.068z" fill="#fff"/></svg>