<svg width="220" height="48" fill="none" xmlns="http://www.w3.org/2000/svg"><g clip-path="url(#a)" fill="#fff"><path d="m143.567 30.056-3.489-8.103-3.47 8.103-.242.551h7.425l-.224-.551zm-1.151-14.08L152.972 40h-5.148l-2.174-5.027h-11.107l-.157.346-2.041 4.68h-5.009l10.659-24.163h4.282l.139.14zm34.247 16.502-5.493-16.636h-4.009l-5.493 16.636-5.323-16.636h-5.214l8.429 24.164h4.052l5.493-15.873 5.493 15.873h4.093l8.412-24.163h-5.093l-5.347 16.635zm19.24-2.852h8.932v-4.415h-8.932v-4.966h12.953v-4.384H191.07v24.145h18.259v-4.403h-13.426v-5.995.018zm19.258-13.765v24.127h4.845V15.843l-4.845.018zm-122.84 9.72H81.25v-9.739h-4.906v24.182h4.905v-9.829h11.07v9.83h4.906V15.842H92.32v9.744-.006zm27.633-9.745h4.899v13.645c0 6.928-3.815 10.9-10.464 10.9-6.65 0-10.362-3.906-10.362-10.707v-13.82h4.905v13.663c0 4.04 1.987 6.201 5.529 6.201 3.543 0 5.493-2.107 5.493-6.056V15.836zM36.914 37.45a.236.236 0 0 0 .26 0c2.798-1.399 14.456-7.321 19.276-12.04a9.398 9.398 0 0 0 3.21-6.406c.345-5.45-5.166-10.556-5.166-10.556a145.607 145.607 0 0 0-17.671 28.67.326.326 0 0 0 .085.308l.006.024zm26.785-12.742s-16.617 8.933-25.217 14.735a.255.255 0 0 0-.103.278s.085.158.206.158c3.077 0 14.716 0 15.025-.037a11.25 11.25 0 0 0 3.367-.775 11.41 11.41 0 0 0 6.287-6.056 11.815 11.815 0 0 0 .43-8.327l.005.024zM38.92 41.332a.333.333 0 0 0-.225.158.278.278 0 0 0 .067.26c1.865 1.344 7.546 5.317 10.295 6.056 0 0 5.063 1.726 9.447-5.82l-19.567-.672-.018.018zm-4.627-5.45a.224.224 0 0 0 .278-.103c1.865-2.695 10.344-15.273 12.051-22.91 0 0 .933-3.694.037-6.22A9.085 9.085 0 0 0 40.196.593S38.712.212 37.12-.012c0 0-5.802 7.46-2.974 35.652a.212.212 0 0 0 .14.224l.005.018zM27.804.006c-.847.067-3.143.606-3.143.606a9.084 9.084 0 0 0-6.407 6.056c-.95 2.955 0 6.22 0 6.22 1.726 7.666 10.223 20.293 12.058 22.94.12.139.224.084.224.084a.26.26 0 0 0 .188-.242C33.559 7.48 27.787.018 27.787.018l.018-.012zm-1.29 39.74c.104-.158-.066-.291-.066-.291-8.582-5.802-25.236-14.716-25.236-14.716a11.573 11.573 0 0 0 10.435 15.14c.29.054 11.622 0 14.662 0a.321.321 0 0 0 .206-.121v-.012zm-.29 1.756a.266.266 0 0 0-.26-.176l-19.555.672c2.125 3.785 5.698 6.717 9.41 5.82 2.574-.642 8.376-4.7 10.296-6.056.157-.12.103-.224.103-.242l.006-.018zm1.81-4.021a.206.206 0 0 0 .055-.243A144.557 144.557 0 0 0 10.394 8.466S4.835 13.753 5.23 19.052a9.326 9.326 0 0 0 3.227 6.371c4.845 4.73 16.6 10.707 19.325 12.076a.242.242 0 0 0 .26-.055"/></g><defs><clipPath id="a"><path fill="#fff" transform="translate(.639)" d="M0 0h219.361v48H0z"/></clipPath></defs></svg>