<svg width="151" height="48" fill="none" xmlns="http://www.w3.org/2000/svg"><g clip-path="url(#a)" fill="#fff"><path d="M108.794 3.87h-3.482v23.66h3.482V3.87zM114.687 23.252a2.346 2.346 0 0 0-2.352 2.35 2.346 2.346 0 0 0 2.352 2.35 2.346 2.346 0 0 0 2.352-2.35 2.346 2.346 0 0 0-2.352-2.35zM123.84 19.29c0-2.822 1.695-5.241 4.981-5.241h2.075v-3.295h-2.075c-2.571 0-3.747.818-4.946 2.178l-.023.034v-2.212h-3.448v16.76h3.436V19.29zM101.531 10.754h-3.482v16.76h3.482v-16.76zM99.79 7.98a2.347 2.347 0 0 0 2.352-2.35 2.354 2.354 0 0 0-2.352-2.35 2.346 2.346 0 0 0-2.353 2.35c0 1.302 1.061 2.35 2.353 2.35zM90.855 12.454c-1.338-1.36-3.39-2.12-5.43-2.12-4.866 0-8.82 3.951-8.82 8.812 0 4.861 3.954 8.812 8.82 8.812 2.04 0 4.196-.875 5.43-2.258v1.832h3.424V10.76h-3.424v1.694zM85.54 24.456c-2.998 0-5.28-2.304-5.28-5.31s2.282-5.287 5.28-5.287c2.997 0 5.361 2.142 5.361 5.287s-2.364 5.31-5.361 5.31zM140.535 27.952c1.556 0 3.539-.84 4.784-2.27.012.635 0 1.21 0 1.833h3.425V10.754h-3.436v9.204c0 2.384-1.822 4.608-4.554 4.608-2.387 0-4.082-1.728-4.082-4.205v-9.595h-3.436v9.883c.012 4.423 2.398 7.303 7.299 7.303zM66.55 10.334c-2.283 0-4.52 1.037-5.88 2.672-1.245-1.647-3.055-2.672-5.488-2.672-1.983 0-3.401.887-4.162 1.601V10.76h-3.424v16.76h3.424v-9.802a3.971 3.971 0 0 1 3.966-3.963c2.18 0 3.966 1.785 3.966 3.963v9.802h3.425v-9.802a3.972 3.972 0 0 1 3.966-3.963c2.179 0 3.966 1.785 3.966 3.963v9.802h3.424v-9.802c.023-4.493-2.894-7.384-7.183-7.384zM111.769 35.267l-.023.023V33.99h-2.19v9.837h2.19v-4.608c0-1.658.992-3.075 2.917-3.075h1.211v-2.154h-1.211c-1.499 0-2.19.484-2.894 1.278zM135.324 39.382c0 1.578-1.268 2.522-2.502 2.522-1.303 0-2.225-.944-2.225-2.292v-5.61h-2.202v5.771c0 2.73 1.568 4.308 4.288 4.308.888 0 1.937-.449 2.629-1.128v.887h2.191v-9.838h-2.202l.023 5.38zM121.58 33.748a5.169 5.169 0 0 0-5.165 5.161 5.169 5.169 0 0 0 5.165 5.16 5.169 5.169 0 0 0 5.165-5.16 5.161 5.161 0 0 0-5.165-5.16zm0 8.133a2.98 2.98 0 0 1-2.974-2.972 2.98 2.98 0 0 1 2.974-2.972 2.981 2.981 0 0 1 2.975 2.972 2.973 2.973 0 0 1-2.975 2.972zM144.893 33.748c-1.13 0-2.225.392-2.997 1.06v-.818h-2.191v13.224h2.191v-4.262c.738.691 1.879 1.129 2.997 1.129a5.17 5.17 0 0 0 5.166-5.16 5.172 5.172 0 0 0-5.166-5.172zm-.069 8.087c-1.718 0-2.963-1.233-2.963-2.926s1.245-2.914 2.963-2.914c1.66 0 2.917 1.255 2.917 2.914 0 1.67-1.257 2.926-2.917 2.926zM105.185 34.808c-.772-.668-1.867-1.06-2.997-1.06a5.17 5.17 0 0 0-5.166 5.161 5.17 5.17 0 0 0 5.166 5.16c1.118 0 2.259-.437 2.997-1.128v.195c-.034 2.016-1.014 3.041-2.928 3.041h-.023c-1.084 0-2.041-.414-2.929-1.278l-.08-.08-1.591 1.52.069.08c.818.956 2.479 2.05 4.473 2.05h.104c1.868-.034 5.004-.76 5.096-5.252V33.98h-2.191v.83zm-2.928 7.027c-1.66 0-2.917-1.256-2.917-2.926 0-1.659 1.257-2.914 2.917-2.914 1.718 0 2.963 1.22 2.963 2.914-.012 1.693-1.245 2.926-2.963 2.926zM24.537 18.843a5.533 5.533 0 0 1-5.534 5.53 5.533 5.533 0 0 1-5.534-5.53 5.533 5.533 0 0 1 11.068 0zM19.003.471C8.857.47.602 8.718.602 18.855s8.255 18.373 18.4 18.373c3.713 0 7.299-1.106 10.366-3.203l.057-.034-2.479-2.88-.046.023a14.635 14.635 0 0 1-7.897 2.315c-8.06 0-14.62-6.554-14.62-14.606 0-8.051 6.56-14.606 14.62-14.606 8.059 0 14.62 6.555 14.62 14.606 0 1.049-.116 2.097-.347 3.145-.461 1.9-1.787 2.477-2.79 2.396-1.003-.08-2.179-.795-2.19-2.546v-2.995c0-5.126-4.174-9.295-9.305-9.295-5.13 0-9.304 4.17-9.304 9.295 0 5.126 4.174 9.296 9.304 9.296 2.49 0 4.831-.979 6.595-2.741a5.988 5.988 0 0 0 4.6 2.741c.162.012.335.023.496.023 1.338 0 2.663-.449 3.736-1.255 1.107-.841 1.925-2.05 2.375-3.502.069-.23.207-.772.207-.772v-.023c.265-1.163.392-2.327.392-3.767C37.404 8.718 29.15.471 19.002.471z"/></g><defs><clipPath id="a"><path fill="#fff" transform="translate(.52)" d="M0 0h150v48H0z"/></clipPath></defs></svg>