<svg width="30" height="41" fill="none" xmlns="http://www.w3.org/2000/svg"><path d="M4.66 31.422.45 38.208l.447 2.22 2.12-.475 4.208-6.781a16.65 16.65 0 0 1-2.566-1.75zm17.823-2.37c.028-.06.046-.127.072-.192.106-.244.2-.489.276-.745.012-.046.018-.092.032-.134a9.74 9.74 0 0 0 .196-.852v-.044c.39-2.44-.29-5.163-1.846-7.623l2.22-3.579c2.558.34 4.77-.332 5.834-2.05 1.846-2.972-.4-7.918-5.01-11.052-4.614-3.136-9.846-3.268-11.688-.3-1.068 1.72-.756 4.106.586 6.416l-2.224 3.579c-2.778-.487-5.432-.034-7.406 1.336-.012.004-.026.008-.034.017-.23.163-.452.34-.664.53-.034.03-.074.056-.102.085a6.185 6.185 0 0 0-.542.568c-.04.05-.096.094-.134.147-.213.251-.407.52-.58.803-2.768 4.454-.406 11.194 5.266 15.053 5.676 3.858 12.52 3.37 15.282-1.084.174-.282.334-.576.466-.879zM20.853 8.26c-1.774-1.205-2.64-3.105-1.93-4.251.708-1.142 2.722-1.09 4.492.115 1.778 1.204 2.636 3.109 1.93 4.25-.706 1.143-2.716 1.09-4.492-.114z" fill="#009FAC"/></svg>