<svg width="195" height="48" fill="none" xmlns="http://www.w3.org/2000/svg"><g clip-path="url(#a)" fill="#fff"><path d="M26.965 14.777a14.904 14.904 0 0 1 1.787 2.957l-13.58 9.983-5.676-3.548v-4.268l5.676 3.548 11.793-8.672zM3.704 23.868c0-.191.005-.382.014-.571l-3.44-.168a14.792 14.792 0 0 0 4.348 11.25l2.44-2.431a11.392 11.392 0 0 1-3.362-8.08zM15.17 12.434c.191 0 .382.007.572.016l.172-3.431a14.903 14.903 0 0 0-11.287 4.336l2.44 2.434a11.425 11.425 0 0 1 8.102-3.355zM15.169 35.301c-.192 0-.383 0-.574-.015l-.172 3.43a14.892 14.892 0 0 0 11.282-4.336l-2.435-2.432a11.432 11.432 0 0 1-8.101 3.353z"/><path d="m21.631 14.43 2.899-2.132A14.866 14.866 0 0 0 15.164 9v3.434a11.427 11.427 0 0 1 6.467 1.995zM30.077 23.867a14.924 14.924 0 0 0-.234-2.664l-3.209 2.359v.305a11.376 11.376 0 0 1-3.777 8.475l2.315 2.55a14.83 14.83 0 0 0 3.627-4.992c.846-1.9 1.28-3.955 1.278-6.032zM15.168 35.302a11.468 11.468 0 0 1-8.498-3.767l-2.557 2.307a14.866 14.866 0 0 0 5.006 3.619 14.903 14.903 0 0 0 6.05 1.274v-3.433zM7.48 15.393l-2.313-2.55a14.83 14.83 0 0 0-3.628 4.992 14.794 14.794 0 0 0-1.28 6.032h3.445a11.379 11.379 0 0 1 3.777-8.474zM86.294 17.503l4.266-3.1H76.283v18.622H90.56v-3.1H80.357v-4.769h8.703v-3.099h-8.703v-4.554h5.937zM66.677 21.658h-4.956V17.5h7.91l4.263-3.108H57.649v18.62h8.504c4.767 0 7.503-2.13 7.503-5.845 0-3.555-2.478-5.51-6.979-5.51zm-.708 8.256h-4.248v-5.16h4.248c2.579 0 3.788.865 3.788 2.58s-1.287 2.58-3.788 2.58zM101.053 14.4h-7.77v18.622h4.072v-5.275h3.698c4.958 0 8.025-2.573 8.025-6.683 0-4.11-3.067-6.663-8.025-6.663zm-.086 10.245h-3.612v-7.143h3.612c2.608 0 4.048 1.27 4.048 3.573 0 2.304-1.44 3.57-4.048 3.57zM51.537 28.627a7.191 7.191 0 0 1-3.428.846c-3.58 0-6.179-2.52-6.179-5.992 0-3.471 2.598-5.997 6.18-5.997a6.115 6.115 0 0 1 3.608 1.102l2.85-2.07-.193-.134c-1.662-1.441-3.883-2.204-6.425-2.204-2.757 0-5.257.914-7.042 2.578a8.988 8.988 0 0 0-2.097 3.029 8.883 8.883 0 0 0-.696 3.602 9.177 9.177 0 0 0 .694 3.643 9.28 9.28 0 0 0 2.082 3.085c1.794 1.73 4.288 2.683 7.026 2.683 2.86 0 5.36-.983 7.053-2.774l-2.55-1.873-.883.476zM125.23 21.658h-4.955V17.5h10.647v-3.108h-14.721v18.62h8.493c4.767 0 7.503-2.13 7.503-5.845.011-3.555-2.467-5.51-6.967-5.51zm-.708 8.256h-4.247v-5.16h4.247c2.578 0 3.787.865 3.787 2.58s-1.275 2.58-3.787 2.58zM178.505 32.987h-4.129v-18.62h4.129v7.82h2.248l6.069-7.82h4.68l-7.199 8.858 8.36 9.762h-5.479l-6.145-7.323h-2.534v7.323zM147.2 29.449h-8.736l-1.481 3.616h-4.394l8.193-18.621h4.394l8.06 18.62h-4.555L147.2 29.45zm-1.368-3.374-2.974-7.232-2.99 7.232h5.964zM158.795 14.444v7.775h8.545v-7.775h4.258v18.62h-4.258v-7.337h-8.545v7.338h-4.258V14.444h4.258z"/></g><defs><clipPath id="a"><path fill="#fff" transform="translate(.26)" d="M0 0h194v48H0z"/></clipPath></defs></svg>